<svg width="24" height="24" viewBox="0 0 24 24" fill="none" xmlns="http://www.w3.org/2000/svg">
  <g transform="translate(2,1)">
    <!-- Wrist -->
    <path d="M8 18c1.1 0 2-.9 2-2v-1h2c1.1 0 2-.9 2-2v-1h1c1.1 0 2-.9 2-2V8c0-1.1-.9-2-2-2s-2 .9-2 2v2h-1V8c0-1.1-.9-2-2-2s-2 .9-2 2v4H8V8c0-1.1-.9-2-2-2s-2 .9-2 2v6H3V8c0-1.1-.9-2-2-2s-2 .9-2 2v8c0 2.2 1.8 4 4 4h5z" fill="currentColor" opacity="0.9"/>
    
    <!-- Thumb -->
    <path d="M16 8c0-1.1-.9-2-2-2s-2 .9-2 2v2h2c1.1 0 2-.9 2-2z" fill="currentColor" opacity="0.95"/>
    
    <!-- Index finger -->
    <path d="M13 6V4c0-1.1-.9-2-2-2s-2 .9-2 2v8h2V6h2z" fill="currentColor"/>
    
    <!-- Middle finger -->
    <path d="M10 6V3c0-1.1-.9-2-2-2s-2 .9-2 2v9h2V6h2z" fill="currentColor"/>
    
    <!-- Ring finger -->
    <path d="M7 6V4c0-1.1-.9-2-2-2s-2 .9-2 2v8h2V6h2z" fill="currentColor" opacity="0.95"/>
    
    <!-- Pinky -->
    <path d="M4 6V5c0-1.1-.9-2-2-2s-2 .9-2 2v9h2V6h2z" fill="currentColor" opacity="0.9"/>
    
    <!-- Highlight/shine effect -->
    <ellipse cx="8" cy="10" rx="3" ry="1.5" fill="white" opacity="0.1"/>
  </g>
</svg>